# xmcd
#
# Track frame offsets:
#	150
#	22866
#	52615
#	71849
#	93595
#	114396
#	131013
#	147947
#	168178
#	184586
#	208579
#
# Disc length: 3485 seconds
#
# Revision: 0
# Processed by: cddbd v1.5.2PL0 Copyright (c) Steve Scherf et al.
# Submitted via: EZCDAudioConverter 7.0.5.1
#
DISCID=8f0d9b0b
DTITLE=Snowy White and The White Flames - Reunited
DYEAR=2017
DGENRE=Blues Rock
TTITLE0=Have I Got Blues For You
TTITLE1=Headful Of Blues
TTITLE2=I've Heard It All Before
TTITLE3=Where Will You Belong
TTITLE4=I Know Our Time Ain't Long
TTITLE5=Rest Full
TTITLE6=Long Time No C
TTITLE7=Emptyhanded
TTITLE8='Nuff Said
TTITLE9=In California
TTITLE10=Time To Start Living
EXTD=
EXTT0=
EXTT1=
EXTT2=
EXTT3=
EXTT4=
EXTT5=
EXTT6=
EXTT7=
EXTT8=
EXTT9=
EXTT10=
PLAYORDER=
